PathFileType	4	(X/Y/Z)	 1.9Hzlow3min.trc
DataRate	CameraRate	NumFrames	NumMarkers	Units	OrigDataRate	OrigDataStartFrame	OrigNumFrames
200	200	10	39	m	200	251	1000
Frame#	Time	C7			LSH			RSH			MAN			RASI			LASI			HIPR			HIPL			RPSI			LPSI			COX			RTHI1			RTHI2			RTHI3			RTHI4			RLKN			RMKN			RSHA1			RSHA2			RSHA3			RSHA4			RHEEL			RMET5			RMET1			RTOE			LTHI1			LTHI2			LTHI3			LTHI4			LLKN			LMKN			LSHA1			LSHA2			LSHA3			LSHA4			LHEEL			LMET5			LMET1			LTOE			
		X1	Y1	Z1	X2	Y2	Z2	X3	Y3	Z3	X4	Y4	Z4	X5	Y5	Z5	X6	Y6	Z6	X7	Y7	Z7	X8	Y8	Z8	X9	Y9	Z9	X10	Y10	Z10	X11	Y11	Z11	X12	Y12	Z12	X13	Y13	Z13	X14	Y14	Z14	X15	Y15	Z15	X16	Y16	Z16	X17	Y17	Z17	X18	Y18	Z18	X19	Y19	Z19	X20	Y20	Z20	X21	Y21	Z21	X22	Y22	Z22	X23	Y23	Z23	X24	Y24	Z24	X25	Y25	Z25	X26	Y26	Z26	X27	Y27	Z27	X28	Y28	Z28	X29	Y29	Z29	X30	Y30	Z30	X31	Y31	Z31	X32	Y32	Z32	X33	Y33	Z33	X34	Y34	Z34	X35	Y35	Z35	X36	Y36	Z36	X37	Y37	Z37	X38	Y38	Z38	X39	Y39	Z39	
251	1.2550	-0.303983	1.572618	-0.541051	-0.252815	1.570194	-0.722801	-0.269041	1.571019	-0.362944	-0.157349	1.533872	-0.543583	-0.144310	1.056559	-0.431546	-0.147596	1.061482	-0.665105	-0.210839	1.135211	-0.380254	-0.202485	1.129918	-0.708156	-0.320025	1.122848	-0.506169	-0.322329	1.121679	-0.573960	-0.321773	1.121841	-0.542585	-0.235591	0.883469	-0.346217	-0.224465	0.825566	-0.339366	-0.159251	0.836039	-0.344054	-0.164006	0.896558	-0.352480	-0.217109	0.562842	-0.366880	-0.192985	0.550000	-0.477264	-0.301434	0.440974	-0.340114	-0.310548	0.399763	-0.348162	-0.250360	0.392739	-0.342727	-0.245012	0.432550	-0.338951	-0.359935	0.153837	-0.421151	-0.216578	0.066165	-0.354153	-0.165323	0.078668	-0.410339	-0.144470	0.070010	-0.404304	-0.234780	0.851420	-0.745152	-0.218327	0.791714	-0.748154	-0.154842	0.803554	-0.747776	-0.162182	0.863369	-0.744452	-0.209389	0.557608	-0.718314	-0.183884	0.547783	-0.616799	-0.307355	0.427821	-0.731064	-0.319559	0.389434	-0.726500	-0.258719	0.376014	-0.735522	-0.254604	0.419873	-0.739586	-0.375116	0.156625	-0.645474	-0.245206	0.066411	-0.734015	-0.187342	0.073816	-0.676712	-0.165499	0.062251	-0.687580	
252	1.2600	-0.304108	1.571764	-0.540822	-0.252981	1.569185	-0.722660	-0.269251	1.569858	-0.362529	-0.157513	1.532997	-0.543383	-0.144713	1.055635	-0.431634	-0.148208	1.060684	-0.665129	-0.211089	1.134317	-0.380297	-0.203324	1.129045	-0.708023	-0.320591	1.121821	-0.505935	-0.322953	1.120628	-0.573703	-0.322372	1.120803	-0.542335	-0.235560	0.882596	-0.345971	-0.224274	0.824696	-0.339334	-0.159117	0.835231	-0.344246	-0.163999	0.895761	-0.352618	-0.217104	0.562056	-0.366645	-0.193209	0.549275	-0.477220	-0.301932	0.440307	-0.340044	-0.311194	0.399173	-0.348139	-0.250998	0.391963	-0.342625	-0.245570	0.431727	-0.338832	-0.361399	0.153208	-0.421206	-0.217994	0.065632	-0.354225	-0.166713	0.078123	-0.410445	-0.145845	0.069423	-0.404453	-0.234388	0.850448	-0.745149	-0.217626	0.790834	-0.748104	-0.154203	0.802982	-0.747376	-0.161865	0.862765	-0.744057	-0.208594	0.556789	-0.718393	-0.183268	0.546913	-0.616922	-0.307370	0.427372	-0.731233	-0.319804	0.389059	-0.726622	-0.259021	0.375295	-0.735475	-0.254639	0.419118	-0.739599	-0.377015	0.156356	-0.645511	-0.246619	0.066246	-0.733342	-0.189130	0.073543	-0.675621	-0.167241	0.061938	-0.686321	
253	1.2650	-0.304209	1.570670	-0.540584	-0.253169	1.567909	-0.722537	-0.269405	1.568437	-0.362091	-0.157639	1.531860	-0.543181	-0.145142	1.054481	-0.431732	-0.148819	1.059640	-0.665158	-0.211386	1.133195	-0.380336	-0.204176	1.127900	-0.707906	-0.321192	1.120545	-0.505700	-0.323604	1.119306	-0.573431	-0.323000	1.119503	-0.542074	-0.235533	0.881503	-0.345774	-0.224064	0.823619	-0.339330	-0.158995	0.834206	-0.344441	-0.164003	0.894751	-0.352759	-0.217002	0.561031	-0.366401	-0.193373	0.548316	-0.477188	-0.302400	0.439382	-0.339934	-0.311788	0.398358	-0.348090	-0.251602	0.390921	-0.342515	-0.246066	0.430649	-0.338697	-0.362944	0.152468	-0.421258	-0.219531	0.064803	-0.354425	-0.168233	0.077250	-0.410701	-0.147370	0.068481	-0.404733	-0.234023	0.849264	-0.745130	-0.216974	0.789727	-0.748024	-0.153612	0.802170	-0.746961	-0.161573	0.861923	-0.743653	-0.207848	0.555736	-0.718478	-0.182659	0.545838	-0.617032	-0.307398	0.426702	-0.731409	-0.320064	0.388467	-0.726759	-0.259334	0.374350	-0.735435	-0.254689	0.418135	-0.739621	-0.378893	0.155859	-0.645554	-0.248010	0.065869	-0.732709	-0.190908	0.073028	-0.674573	-0.168961	0.061394	-0.685107	
254	1.2700	-0.304291	1.569334	-0.540341	-0.253377	1.566370	-0.722434	-0.269500	1.566766	-0.361634	-0.157718	1.530463	-0.542976	-0.145600	1.053099	-0.431839	-0.149436	1.058350	-0.665192	-0.211725	1.131838	-0.380365	-0.205026	1.126479	-0.707805	-0.321825	1.119025	-0.505467	-0.324274	1.117714	-0.573153	-0.323651	1.117937	-0.541809	-0.235520	0.880182	-0.345623	-0.223809	0.822321	-0.339369	-0.158882	0.832976	-0.344624	-0.164027	0.893520	-0.352896	-0.216789	0.559755	-0.366153	-0.193470	0.547113	-0.477153	-0.302816	0.438217	-0.339801	-0.312321	0.397315	-0.348004	-0.252174	0.389613	-0.342399	-0.246481	0.429324	-0.338556	-0.364558	0.151628	-0.421313	-0.221193	0.063639	-0.354751	-0.169908	0.076026	-0.411079	-0.149023	0.067170	-0.405205	-0.233700	0.847867	-0.745085	-0.216390	0.788395	-0.747918	-0.153093	0.801114	-0.746546	-0.161321	0.860835	-0.743260	-0.207132	0.554445	-0.718573	-0.182070	0.544542	-0.617128	-0.307425	0.425803	-0.731591	-0.320320	0.387651	-0.726903	-0.259648	0.373178	-0.735400	-0.254741	0.416923	-0.739646	-0.380732	0.155142	-0.645601	-0.249389	0.065291	-0.732158	-0.192682	0.072276	-0.673612	-0.170658	0.060604	-0.683968	
255	1.2750	-0.304358	1.567760	-0.540096	-0.253599	1.564574	-0.722347	-0.269527	1.564847	-0.361178	-0.157760	1.528805	-0.542772	-0.146087	1.051485	-0.431951	-0.150053	1.056809	-0.665227	-0.212104	1.130244	-0.380377	-0.205863	1.124787	-0.707717	-0.322478	1.117264	-0.505233	-0.324962	1.115857	-0.572877	-0.324328	1.116110	-0.541545	-0.235528	0.878620	-0.345516	-0.223552	0.820781	-0.339422	-0.158796	0.831522	-0.344793	-0.164079	0.892069	-0.353028	-0.216455	0.558224	-0.365901	-0.193483	0.545648	-0.477103	-0.303162	0.436812	-0.339641	-0.312774	0.396055	-0.347902	-0.252687	0.388053	-0.342277	-0.246811	0.427759	-0.338402	-0.366234	0.150711	-0.421367	-0.223029	0.062135	-0.355192	-0.171722	0.074412	-0.411590	-0.150851	0.065425	-0.405820	-0.233434	0.846248	-0.745013	-0.215886	0.786840	-0.747791	-0.152652	0.799808	-0.746153	-0.161117	0.859500	-0.742883	-0.206432	0.552903	-0.718679	-0.181501	0.543013	-0.617207	-0.307440	0.424675	-0.731771	-0.320560	0.386599	-0.727053	-0.259948	0.371773	-0.735368	-0.254788	0.415486	-0.739666	-0.382519	0.154210	-0.645636	-0.250757	0.064528	-0.731690	-0.194415	0.071287	-0.672764	-0.172352	0.059560	-0.682946	
256	1.2800	-0.304412	1.565941	-0.539852	-0.253833	1.562529	-0.722279	-0.269482	1.562678	-0.360709	-0.157792	1.526892	-0.542576	-0.146606	1.049638	-0.432063	-0.150669	1.055012	-0.665262	-0.212527	1.128415	-0.380369	-0.206676	1.122826	-0.707638	-0.323151	1.115268	-0.505005	-0.325666	1.113740	-0.572617	-0.325028	1.114036	-0.541295	-0.235569	0.876815	-0.345414	-0.223306	0.818997	-0.339477	-0.158736	0.829858	-0.344940	-0.164169	0.890401	-0.353143	-0.215988	0.556439	-0.365643	-0.193397	0.543920	-0.477032	-0.303390	0.435205	-0.339454	-0.313149	0.394590	-0.347769	-0.253119	0.386258	-0.342159	-0.247040	0.425941	-0.338240	-0.367964	0.149729	-0.421420	-0.225058	0.060257	-0.355735	-0.173679	0.072404	-0.412238	-0.152849	0.063214	-0.406580	-0.233230	0.844406	-0.744917	-0.215472	0.785064	-0.747662	-0.152290	0.798251	-0.745796	-0.160969	0.857918	-0.742528	-0.205747	0.551114	-0.718796	-0.180947	0.541249	-0.617265	-0.307441	0.423313	-0.731941	-0.320783	0.385313	-0.727201	-0.260230	0.370135	-0.735343	-0.254825	0.413822	-0.739686	-0.384247	0.153081	-0.645656	-0.252168	0.063531	-0.731327	-0.196119	0.070003	-0.672057	-0.174016	0.058228	-0.682105	
257	1.2850	-0.304456	1.563880	-0.539613	-0.254064	1.560233	-0.722227	-0.269373	1.560274	-0.360224	-0.157816	1.524727	-0.542390	-0.147158	1.047561	-0.432168	-0.151283	1.052957	-0.665289	-0.212996	1.126351	-0.380339	-0.207461	1.120600	-0.707566	-0.323845	1.113037	-0.504794	-0.326385	1.111373	-0.572381	-0.325758	1.111727	-0.541076	-0.235654	0.874765	-0.345316	-0.223078	0.816970	-0.339525	-0.158702	0.827983	-0.345058	-0.164303	0.888513	-0.353237	-0.215381	0.554402	-0.365383	-0.193205	0.541928	-0.476939	-0.303494	0.433408	-0.339226	-0.313435	0.392912	-0.347584	-0.253468	0.384220	-0.342045	-0.247154	0.423880	-0.338071	-0.369745	0.148700	-0.421454	-0.227284	0.058035	-0.356406	-0.175833	0.069923	-0.412968	-0.155051	0.060523	-0.407431	-0.233093	0.842332	-0.744802	-0.215147	0.783054	-0.747538	-0.152013	0.796440	-0.745484	-0.160880	0.856082	-0.742202	-0.205072	0.549081	-0.718929	-0.180413	0.539239	-0.617302	-0.307428	0.421708	-0.732104	-0.320983	0.383789	-0.727347	-0.260497	0.368262	-0.735326	-0.254850	0.411931	-0.739707	-0.385908	0.151766	-0.645650	-0.253639	0.062256	-0.731060	-0.197839	0.068424	-0.671503	-0.175670	0.056647	-0.681482	
258	1.2900	-0.304490	1.561573	-0.539383	-0.254284	1.557688	-0.722187	-0.269207	1.557635	-0.359737	-0.157812	1.522303	-0.542212	-0.147747	1.045249	-0.432260	-0.151897	1.050644	-0.665301	-0.213506	1.124049	-0.380288	-0.208216	1.118120	-0.707499	-0.324555	1.110573	-0.504607	-0.327113	1.108768	-0.572180	-0.326506	1.109180	-0.540890	-0.235788	0.872464	-0.345217	-0.222866	0.814680	-0.339568	-0.158693	0.825899	-0.345139	-0.164485	0.886399	-0.353305	-0.214627	0.552114	-0.365122	-0.192905	0.539672	-0.476822	-0.303458	0.431426	-0.338956	-0.313621	0.391026	-0.347355	-0.253713	0.381974	-0.341944	-0.247142	0.421591	-0.337914	-0.371577	0.147628	-0.421467	-0.229731	0.055468	-0.357183	-0.178208	0.067003	-0.413804	-0.157480	0.057310	-0.408413	-0.233026	0.840023	-0.744677	-0.214907	0.780814	-0.747431	-0.151815	0.794373	-0.745225	-0.160856	0.853992	-0.741915	-0.204403	0.546811	-0.719080	-0.179890	0.536978	-0.617324	-0.307403	0.419855	-0.732261	-0.321165	0.382017	-0.727486	-0.260747	0.366160	-0.735322	-0.254864	0.409809	-0.739734	-0.387499	0.150270	-0.645607	-0.255191	0.060720	-0.730913	-0.199560	0.066548	-0.671169	-0.177366	0.054786	-0.681112	
259	1.2950	-0.304507	1.559025	-0.539167	-0.254492	1.554901	-0.722162	-0.268993	1.554759	-0.359250	-0.157776	1.519616	-0.542044	-0.148372	1.042700	-0.432333	-0.152503	1.048068	-0.665295	-0.214065	1.121511	-0.380219	-0.208929	1.115388	-0.707431	-0.325278	1.107877	-0.504449	-0.327850	1.105932	-0.572024	-0.327279	1.106404	-0.540752	-0.235972	0.869907	-0.345115	-0.222721	0.812127	-0.339571	-0.158711	0.823596	-0.345184	-0.164716	0.884067	-0.353343	-0.213722	0.549584	-0.364858	-0.192462	0.537157	-0.476697	-0.303276	0.429262	-0.338637	-0.313701	0.388943	-0.347085	-0.253838	0.379519	-0.341859	-0.247004	0.419091	-0.337769	-0.373464	0.146510	-0.421454	-0.232422	0.052519	-0.358048	-0.180792	0.063665	-0.414748	-0.160153	0.053619	-0.409548	-0.233027	0.837478	-0.744554	-0.214748	0.778334	-0.747344	-0.151690	0.792048	-0.745023	-0.160898	0.851642	-0.741663	-0.203749	0.544295	-0.719252	-0.179366	0.534466	-0.617335	-0.307372	0.417765	-0.732405	-0.321336	0.380002	-0.727617	-0.260985	0.363830	-0.735336	-0.254874	0.407457	-0.739775	-0.389014	0.148567	-0.645480	-0.256857	0.058889	-0.730864	-0.201286	0.064362	-0.671022	-0.179114	0.052579	-0.680978	
260	1.3000	-0.304502	1.556226	-0.538969	-0.254673	1.551867	-0.722148	-0.268741	1.551647	-0.358764	-0.157748	1.516682	-0.541889	-0.149040	1.039919	-0.432378	-0.153105	1.045225	-0.665266	-0.214674	1.118731	-0.380134	-0.209603	1.112409	-0.707363	-0.326021	1.104950	-0.504328	-0.328573	1.102858	-0.571916	-0.328028	1.103373	-0.540639	-0.236205	0.867091	-0.345011	-0.222622	0.809321	-0.339541	-0.158742	0.821081	-0.345187	-0.164995	0.881515	-0.353345	-0.212666	0.546822	-0.364584	-0.191878	0.534394	-0.476568	-0.302940	0.426896	-0.338260	-0.313670	0.386674	-0.346756	-0.253848	0.376850	-0.341791	-0.246731	0.416384	-0.337649	-0.375442	0.145256	-0.421434	-0.235359	0.049246	-0.359029	-0.183638	0.059925	-0.415780	-0.163096	0.049497	-0.410801	-0.233091	0.834693	-0.744445	-0.214666	0.775605	-0.747287	-0.151642	0.789464	-0.744870	-0.161002	0.849036	-0.741448	-0.203103	0.541537	-0.719440	-0.178836	0.531703	-0.617342	-0.307338	0.415437	-0.732539	-0.321501	0.377751	-0.727739	-0.261219	0.361277	-0.735375	-0.254884	0.404864	-0.739837	-0.390457	0.146666	-0.645261	-0.258679	0.056732	-0.730900	-0.203050	0.061842	-0.671083	-0.180922	0.050012	-0.681071	
